<svg xmlns:xlink="http://www.w3.org/1999/xlink" xmlns="http://www.w3.org/2000/svg" style="width:100%;height:100%;" width="20"  height="20" ><defs><svg viewBox="0 0 20 20" id="svg10712128203"><path d="M 17.999 18 L 17.999 12.14 C 17.999 9.26 17.379 7.06 14.019 7.06 C 12.399 7.06 11.319 7.94 10.879 8.78 L 10.839 8.78 L 10.839 7.32 L 7.659 7.32 L 7.659 18 L 10.979 18 L 10.979 12.7 C 10.979 11.3 11.239 9.96 12.959 9.96 C 14.659 9.96 14.679 11.54 14.679 12.78 L 14.679 17.98 L 17.999 17.98 Z" fill="#18183D"></path><path d="M 2.259 7.32 L 5.579 7.32 L 5.579 18 L 2.259 18 Z" fill="#18183D"></path><path d="M 3.919 2 C 2.859 2 1.999 2.86 1.999 3.92 C 1.999 4.98 2.859 5.86 3.919 5.86 C 4.979 5.86 5.839 4.98 5.839 3.92 C 5.839 2.86 4.979 2 3.919 2 Z" fill="#18183D"></path></svg></defs><use href="#svg10712128203"></use></svg>