<svg width="400" height="400" viewBox="0 0 400 400" fill="none" xmlns="http://www.w3.org/2000/svg">
<rect width="400" height="400" rx="200" fill="#4137FF"/>
<path d="M231.75 168.25L235.437 164.563C248.666 151.334 255.28 144.72 263.5 144.72C271.72 144.72 278.334 151.334 291.563 164.563L298.937 171.937C312.166 185.166 318.78 191.78 318.78 200C318.78 208.22 312.166 214.834 298.937 228.063L291.563 235.437C278.334 248.666 271.72 255.28 263.5 255.28C255.28 255.28 248.666 248.666 235.437 235.437L164.563 164.563C151.334 151.334 144.72 144.72 136.5 144.72C128.28 144.72 121.666 151.334 108.437 164.563L101.063 171.937C87.8341 185.166 81.2196 191.78 81.2196 200C81.2196 208.22 87.8341 214.834 101.063 228.063L108.437 235.437C121.666 248.666 128.28 255.28 136.5 255.28C144.72 255.28 151.334 248.666 164.563 235.437L168.25 231.75" stroke="white" stroke-width="23.8125" stroke-linecap="round"/>
</svg>
