<svg xmlns:xlink="http://www.w3.org/1999/xlink" xmlns="http://www.w3.org/2000/svg" style="width:100%;height:100%;" viewBox="0 0 40 40" preserveAspectRatio="none" width="40" height="40"><defs><svg width="40" height="40" viewBox="0 0 40 40" fill="none" id="svg-514869956_1277">
<rect width="40" height="40" rx="8" fill="#36382E"></rect>
<g clip-path="url(#svg-514869956_1277_clip0_142_405)" fill="none">
<path d="M28.5117 10.7292C22.7976 12.5121 16.7015 14.9496 10.5703 17.2109C9.80505 17.4937 9.81091 18.5288 10.582 18.7554C12.3636 19.2785 14.1523 19.8269 15.9414 20.3828C16.0574 20.4187 16.1832 20.4027 16.2855 20.3386C19.1457 18.5484 22.0281 16.7093 24.8254 14.9703C24.9703 14.88 25.1281 15.0839 25.0023 15.1992C22.7297 17.2851 20.3668 19.4546 18.039 21.5902C17.8898 21.7269 17.8629 21.9519 17.9746 22.1218C19.4742 24.4027 20.9687 26.6949 22.3679 28.9464C22.7234 29.5199 23.5644 29.3999 23.8175 28.7476C26.0054 23.0816 28.3093 17.4726 29.9566 12.1695C30.2074 11.3562 29.3238 10.4777 28.5117 10.7292Z" fill="#FFFFFF"></path>
<path d="M15.6641 22.1473C15.6781 23.7328 15.707 25.3184 15.7504 26.9039C15.7707 27.5812 16.5691 27.9574 17.0488 27.5062C17.5504 27.0359 18.0578 26.5613 18.5699 26.084C18.8176 25.8531 18.8629 25.4707 18.675 25.1816C17.9625 24.0855 17.2418 22.9891 16.5227 21.898C16.2656 21.5082 15.6602 21.6848 15.6645 22.1473H15.6641Z" fill="#FFFFFF"></path>
</g>
<defs>
<clipPath id="svg-514869956_1277_clip0_142_405">
<rect width="20" height="20" fill="white" transform="translate(10 10)"></rect>
</clipPath>
</defs>
</svg></defs><use href="#svg-514869956_1277"></use></svg>