<svg xmlns:xlink="http://www.w3.org/1999/xlink" xmlns="http://www.w3.org/2000/svg" style="width:100%;height:100%;" viewBox="0 0 40 40" preserveAspectRatio="none" width="40" height="40"><defs><svg width="40" height="40" viewBox="0 0 40 40" fill="none" id="svg2052848743_817">
<rect width="40" height="40" rx="8" fill="#36382E"></rect>
<g clip-path="url(#svg2052848743_817_clip0_142_394)" fill="none">
<path d="M20 30C25.5214 30 30 25.5214 30 20C30 14.4786 25.5214 10 20 10C14.4786 10 10 14.4786 10 20C10 25.5214 14.4786 30 20 30ZM19.2857 14.2857C19.2857 13.8929 19.6071 13.5714 20 13.5714C20.3929 13.5714 20.7143 13.8929 20.7143 14.2857V19.6572L24.0179 22.3C24.325 22.5464 24.375 22.9964 24.1286 23.3036C23.9893 23.4786 23.7822 23.5714 23.5714 23.5714C23.4143 23.5714 23.2571 23.5214 23.125 23.4143L19.5536 20.5572C19.3857 20.4214 19.2858 20.2179 19.2858 20V14.2857H19.2857Z" fill="#FFFFFF"></path>
</g>
<defs>
<clipPath id="svg2052848743_817_clip0_142_394">
<rect width="20" height="20" fill="white" transform="translate(10 10)"></rect>
</clipPath>
</defs>
</svg></defs><use href="#svg2052848743_817"></use></svg>