<svg xmlns:xlink="http://www.w3.org/1999/xlink" xmlns="http://www.w3.org/2000/svg" style="width:100%;height:100%;" viewBox="0 0 40 40" preserveAspectRatio="none" width="40" height="40"><defs><svg width="40" height="40" viewBox="0 0 40 40" fill="none" id="svg329255189_975">
<rect width="40" height="40" rx="8" fill="#36382E"></rect>
<g clip-path="url(#svg329255189_975_clip0_142_395)" fill="none">
<path d="M30.3249 11.9249C28.6488 10.6145 21.002 13.5267 20.6741 17.4233C20.562 18.601 20.914 19.7484 21.6475 20.6517C21.0109 21.2986 20.5538 22.2185 20.417 23.3824C20.0822 26.9401 27.0401 29.2555 28.3037 28.0875C29.1383 27.3154 28.8351 24.2218 27.6479 21.9923C30.857 20.068 31.7899 13.0723 30.3249 11.9249Z" fill="#FFFFFF"></path>
<path d="M18.3525 20.6518C19.0846 19.7485 19.4373 18.6011 19.3252 17.4234C18.9973 13.5268 11.3505 10.6146 9.6751 11.925C8.2094 13.0724 9.1423 20.0682 12.3515 21.991C11.1642 24.2205 10.8617 27.3142 11.6956 28.0862C12.9585 29.2543 19.9172 26.9381 19.5824 23.3811C19.4469 22.2193 18.9891 21.3001 18.3525 20.6518Z" fill="#FFFFFF"></path>
</g>
<defs>
<clipPath id="svg329255189_975_clip0_142_395">
<rect width="22" height="22" fill="white" transform="translate(9 9)"></rect>
</clipPath>
</defs>
</svg></defs><use href="#svg329255189_975"></use></svg>