<svg xmlns:xlink="http://www.w3.org/1999/xlink" xmlns="http://www.w3.org/2000/svg" style="width:100%;height:100%;" viewBox="0 0 40 40" preserveAspectRatio="none" width="40" height="40"><defs><svg width="40" height="40" viewBox="0 0 40 40" fill="none" id="svg-867053537_2024">
<rect width="40" height="40" rx="8" fill="#36382E"></rect>
<g clip-path="url(#svg-867053537_2024_clip0_142_400)" fill="none">
<path d="M23.0597 18.9937C22.1964 18.5166 21.2786 18.1531 20.3698 17.776C19.8428 17.5579 19.3384 17.3034 18.8931 16.949C18.0162 16.2493 18.1843 15.1133 19.2112 14.6635C19.502 14.5363 19.8064 14.4954 20.1154 14.4772C21.3058 14.4136 22.4372 14.6317 23.5141 15.1497C24.0503 15.4087 24.2275 15.3269 24.4092 14.768C24.6 14.1773 24.7591 13.5776 24.9363 12.9823C25.0544 12.5825 24.909 12.3189 24.5319 12.1508C23.8412 11.8464 23.1324 11.6283 22.3873 11.5102C21.4149 11.3602 21.4149 11.3557 21.4103 10.3788C21.4058 9.00202 21.4058 9.00202 20.0245 9.00202C19.8246 9.00202 19.6247 8.99748 19.4247 9.00202C18.7795 9.02019 18.6705 9.13379 18.6523 9.78354C18.6432 10.0743 18.6523 10.3651 18.6478 10.6605C18.6432 11.5238 18.6387 11.5102 17.8117 11.81C15.8125 12.537 14.5766 13.9002 14.4448 16.0811C14.3267 18.0122 15.3354 19.3163 16.9211 20.2659C17.898 20.8521 18.9795 21.1974 20.0154 21.6563C20.4198 21.8335 20.806 22.038 21.1423 22.3197C22.1373 23.1421 21.9556 24.5098 20.7742 25.0277C20.1426 25.3049 19.4747 25.3731 18.7886 25.2867C17.7299 25.155 16.7167 24.8778 15.7625 24.3825C15.2036 24.0917 15.04 24.169 14.8492 24.7733C14.6856 25.2958 14.5402 25.8229 14.3948 26.35C14.1995 27.0588 14.2722 27.2269 14.9492 27.5586C15.8125 27.9766 16.7349 28.1902 17.6754 28.3401C18.4115 28.4583 18.4342 28.4901 18.4433 29.2534C18.4478 29.5987 18.4478 29.9486 18.4524 30.2939C18.4569 30.7301 18.6659 30.9846 19.1158 30.9937C19.6247 31.0028 20.1381 31.0027 20.647 30.9891C21.065 30.98 21.2786 30.7528 21.2786 30.3303C21.2786 29.8577 21.3013 29.3806 21.2831 28.9081C21.2604 28.4265 21.4694 28.1811 21.9329 28.0539C23.0007 27.7631 23.9094 27.1906 24.6091 26.3363C26.5538 23.9736 25.8132 20.5158 23.0597 18.9937Z" fill="#FFFFFF"></path>
</g>
<defs>
<clipPath id="svg-867053537_2024_clip0_142_400">
<rect width="22" height="22" fill="white" transform="translate(9 9)"></rect>
</clipPath>
</defs>
</svg></defs><use href="#svg-867053537_2024"></use></svg>