<svg viewBox="0 0 132 24" xmlns:xlink="http://www.w3.org/1999/xlink" xmlns="http://www.w3.org/2000/svg" width="132" height="24" fill="none" id="svg905849350_4840"><g clip-path="url(#svg905849350_4840_a)" fill="#999999"><path d="M74.013 17.714h2.798V7.161h-2.798v10.553Zm0-12.199h2.798v-2.51h-2.798v2.51Zm4.601 15.655h2.798v-4.649h.04c.597.905 1.564 1.502 3.045 1.502 2.715 0 4.567-2.16 4.567-5.575 0-3.292-1.79-5.575-4.588-5.575-1.44 0-2.427.679-3.106 1.605h-.062V7.16h-2.694v14.01Zm5.286-5.472c-1.666 0-2.55-1.255-2.55-3.168 0-1.892.699-3.394 2.448-3.394 1.728 0 2.427 1.399 2.427 3.394 0 1.996-.905 3.168-2.325 3.168Zm10.745 2.325c2.633 0 4.443-1.276 4.443-3.394 0-2.47-1.954-2.963-3.723-3.333-1.502-.309-2.9-.391-2.9-1.296 0-.761.72-1.173 1.81-1.173 1.193 0 1.913.412 2.036 1.543h2.53c-.205-2.119-1.748-3.497-4.525-3.497-2.407 0-4.3 1.09-4.3 3.374 0 2.304 1.852 2.818 3.744 3.188 1.44.288 2.777.391 2.777 1.4 0 .74-.699 1.213-1.933 1.213-1.255 0-2.12-.535-2.304-1.749h-2.592c.164 2.243 1.872 3.724 4.937 3.724Zm15.065-.309V7.161h-2.798v6.09c0 1.398-.802 2.386-2.118 2.386-1.194 0-1.749-.68-1.749-1.914V7.161h-2.777v7.036c0 2.304 1.316 3.805 3.662 3.805 1.481 0 2.304-.555 3.024-1.522h.061v1.234h2.695Zm1.81 0h2.797v-6.13c0-1.399.762-2.304 1.893-2.304 1.029 0 1.625.617 1.625 1.81v6.624h2.798v-6.13c0-1.399.72-2.304 1.892-2.304 1.029 0 1.626.617 1.626 1.81v6.624h2.798v-7.097c0-2.304-1.256-3.744-3.477-3.744-1.337 0-2.448.7-3.168 1.851h-.041c-.514-1.11-1.584-1.851-2.922-1.851-1.46 0-2.488.74-3.064 1.707h-.062V7.161h-2.695v10.553Zm-110.425 0h2.797V3.006H1.095v14.708Zm9.638.309c3.27 0 5.513-2.428 5.513-5.575 0-3.148-2.242-5.575-5.513-5.575-3.27 0-5.513 2.427-5.513 5.575 0 3.147 2.242 5.575 5.513 5.575Zm0-2.14c-1.728 0-2.674-1.378-2.674-3.435 0-2.057.946-3.456 2.674-3.456 1.707 0 2.674 1.399 2.674 3.456s-.966 3.435-2.674 3.435Zm11.463 5.431c1.563 0 2.921-.37 3.805-1.193.782-.72 1.255-1.728 1.255-3.21v-9.75h-2.695v1.111h-.04c-.638-.885-1.605-1.399-2.922-1.399-2.674 0-4.567 2.016-4.567 5.163 0 3.189 2.304 5.04 4.65 5.04 1.337 0 2.139-.534 2.756-1.234h.062v1.152c0 1.44-.761 2.201-2.345 2.201-1.296 0-1.893-.514-2.12-1.172H17.26c.288 2.057 2.057 3.291 4.937 3.291Zm-.041-6.48c-1.44 0-2.387-1.049-2.387-2.839 0-1.769.947-2.88 2.366-2.88 1.687 0 2.51 1.317 2.51 2.86 0 1.563-.72 2.86-2.49 2.86Zm11.902 3.189c3.27 0 5.513-2.428 5.513-5.575 0-3.148-2.242-5.575-5.513-5.575s-5.514 2.427-5.514 5.575c0 3.147 2.243 5.575 5.514 5.575Zm0-2.14c-1.728 0-2.675-1.378-2.675-3.435 0-2.057.947-3.456 2.675-3.456 1.707 0 2.674 1.399 2.674 3.456s-.967 3.435-2.674 3.435Zm93.908-10.455c0-.473.384-.857.857-.857h1.715a.857.857 0 0 1 0 1.715h-1.715a.857.857 0 0 1-.857-.858Z" fill="#999999"></path><path fill-rule="evenodd" clip-rule="evenodd" d="M56.537 0c6.627 0 12 5.373 12 12s-5.373 12-12 12c-6.628 0-12-5.373-12-12s5.372-12 12-12Zm-.434.898c-1.37.193-2.673 1.293-3.685 3.132a12.482 12.482 0 0 0-.789 1.76 20.076 20.076 0 0 1 4.474-.58V.897Zm-5.488 5.18a13.9 13.9 0 0 1 1.043-2.466c.502-.912 1.097-1.7 1.768-2.304a11.156 11.156 0 0 0-7.582 7.581c.605-.67 1.393-1.266 2.305-1.767a13.854 13.854 0 0 1 2.466-1.044Zm-.288 1.015a20.078 20.078 0 0 0-.581 4.473h-4.312c.193-1.369 1.293-2.672 3.133-3.684a12.49 12.49 0 0 1 1.76-.79Zm.286 4.473c.036-1.73.285-3.356.698-4.792 1.436-.412 3.06-.661 4.792-.697V7.95a6.385 6.385 0 0 1-3.616 3.616h-1.874Zm-.867.868h-4.312c.193 1.369 1.293 2.672 3.133 3.684.534.294 1.123.559 1.76.79a20.077 20.077 0 0 1-.581-4.474Zm1.565 4.792c-.413-1.436-.662-3.061-.698-4.792h1.874a6.385 6.385 0 0 1 3.616 3.615v1.874c-1.731-.036-3.356-.285-4.792-.697Zm-.696.696c-.9-.288-1.73-.639-2.466-1.044-.912-.501-1.7-1.097-2.305-1.767a11.156 11.156 0 0 0 7.582 7.581c-.67-.605-1.266-1.392-1.768-2.304a13.86 13.86 0 0 1-1.043-2.466Zm5.488 5.18c-1.37-.193-2.673-1.293-3.685-3.132a12.488 12.488 0 0 1-.789-1.76c1.376.345 2.888.55 4.474.58v4.312Zm3.544-.41c.67-.605 1.266-1.392 1.768-2.304a13.9 13.9 0 0 0 1.043-2.466c.9-.288 1.73-.639 2.466-1.044.912-.501 1.7-1.097 2.305-1.767a11.156 11.156 0 0 1-7.582 7.581Zm1.797-4.482a12.534 12.534 0 0 1-.79 1.76c-1.011 1.84-2.315 2.94-3.684 3.132v-4.311a20.083 20.083 0 0 0 4.474-.581Zm1.302-1.303c.637-.23 1.227-.495 1.76-.789 1.84-1.012 2.94-2.315 3.133-3.684h-4.311a20.1 20.1 0 0 1-.582 4.473Zm-.286-4.473c-.036 1.73-.285 3.356-.698 4.792-1.435.412-3.06.661-4.792.697v-1.872a6.385 6.385 0 0 1 3.617-3.617h1.873Zm.868-.868h4.31c-.192-1.369-1.292-2.672-3.132-3.684a12.479 12.479 0 0 0-1.76-.79c.346 1.377.55 2.888.582 4.474Zm-1.566-4.792c.413 1.436.662 3.061.698 4.792h-1.873A6.385 6.385 0 0 1 56.97 7.95V6.077c1.731.036 3.357.285 4.792.697Zm.696-.696c.9.287 1.73.639 2.466 1.044.912.501 1.7 1.097 2.305 1.767a11.157 11.157 0 0 0-7.582-7.581c.67.605 1.266 1.392 1.768 2.304a13.9 13.9 0 0 1 1.043 2.466ZM56.97.898c1.37.193 2.673 1.293 3.685 3.132.293.534.558 1.124.79 1.76a20.081 20.081 0 0 0-4.475-.58V.897Z" fill="#999999"></path></g><defs><clipPath id="svg905849350_4840_a"><path fill="#fff" transform="translate(.6)" d="M0 0h130.8v24H0z"></path></clipPath></defs></svg>