<svg viewBox="0 0 132 24" xmlns:xlink="http://www.w3.org/1999/xlink" xmlns="http://www.w3.org/2000/svg" width="132" height="24" fill="none" id="svg1254718711_3004"><g clip-path="url(#svg1254718711_3004_a)" fill="#999999"><path d="M12 24c6.628 0 12-5.372 12-12V3.6A3.6 3.6 0 0 0 20.4 0h-7.8v5.264c0 1.202.073 2.446.703 3.468a6 6 0 0 0 4.143 2.777l.23.037a.48.48 0 0 1 0 .908l-.23.037a6 6 0 0 0-4.955 4.955l-.037.23a.48.48 0 0 1-.908 0l-.037-.23a6.001 6.001 0 0 0-2.777-4.143c-1.022-.63-2.266-.703-3.468-.703H.014C.328 18.949 5.574 24 12 24Z" fill="#999999"></path><path d="M0 11.4h5.264c1.202 0 2.446-.073 3.468-.703a6.01 6.01 0 0 0 1.965-1.965c.63-1.022.703-2.266.703-3.468V0H3.6A3.6 3.6 0 0 0 0 3.6v7.8ZM27.873 1.2a1.2 1.2 0 1 1-2.4 0 1.2 1.2 0 0 1 2.4 0Zm99.154 6.062c3.354 0 4.973 2.343 4.973 5.057v5.097h-3.511v-4.492c0-1.23-.448-2.245-1.735-2.245-1.287 0-1.716 1.015-1.716 2.245v4.492h-3.511v-4.492c0-1.23-.429-2.245-1.717-2.245-1.287 0-1.735 1.015-1.735 2.245v4.492h-3.51v-5.097c0-2.714 1.618-5.057 4.972-5.057 1.834 0 3.16.722 3.765 1.913.643-1.19 2.048-1.914 3.725-1.914v.001Zm-18.771 7.03c1.131 0 1.619-1.035 1.619-2.266V7.652h3.51v4.804c0 2.87-1.677 5.253-5.129 5.253-3.452 0-5.129-2.382-5.129-5.253V7.652h3.51v4.374c0 1.23.488 2.266 1.619 2.266Zm-10.291 3.436c-2.204 0-3.628-.761-4.466-2.245l2.535-1.426c.351.625.877.938 1.755.938.722 0 1.053-.254 1.053-.567 0-1.19-5.148.02-5.148-3.768 0-1.836 1.56-3.32 4.212-3.32 2.321 0 3.589 1.133 4.155 2.226l-2.536 1.445c-.214-.585-.878-.937-1.54-.937-.508 0-.78.215-.78.508 0 1.21 5.148.097 5.148 3.768 0 2.05-2.009 3.378-4.388 3.378ZM85.7 21.908h-3.51v-9.393c0-2.988 2.242-5.155 5.363-5.155 3.042 0 5.363 2.323 5.363 5.155 0 3.124-2.068 5.194-5.168 5.194a4.328 4.328 0 0 1-2.048-.547v4.745Zm1.853-7.499c1.111 0 1.852-.86 1.852-1.875 0-1.034-.74-1.874-1.852-1.874s-1.853.84-1.853 1.875c0 1.015.74 1.874 1.853 1.874Zm-8.88-7.791a2.124 2.124 0 0 1-2.106-2.109c0-1.152.955-2.109 2.106-2.109 1.15 0 2.106.957 2.106 2.109a2.124 2.124 0 0 1-2.106 2.109Zm-1.755 1.034h3.51v9.764h-3.51V7.652ZM70.182 17.71c-3.043 0-5.363-2.343-5.363-5.194 0-2.832 2.32-5.175 5.363-5.175 3.043 0 5.363 2.343 5.363 5.175 0 2.851-2.32 5.194-5.363 5.194Zm0-3.3c1.112 0 1.853-.86 1.853-1.875 0-1.034-.741-1.894-1.853-1.894s-1.853.86-1.853 1.894c0 1.016.741 1.875 1.853 1.875ZM58.19 22.2c-2.418 0-4.174-1.074-5.07-2.988l2.905-1.562c.312.664.897 1.348 2.106 1.348 1.268 0 2.107-.801 2.204-2.207-.468.41-1.21.722-2.32.722-2.712 0-4.896-2.089-4.896-5.018 0-2.83 2.321-5.135 5.364-5.135 3.12 0 5.363 2.167 5.363 5.155v3.866c0 3.515-2.438 5.819-5.656 5.819Zm.234-7.986c1.053 0 1.853-.723 1.853-1.797 0-1.054-.8-1.757-1.853-1.757-1.034 0-1.853.703-1.853 1.758 0 1.074.819 1.795 1.853 1.795v.001Zm-11.26 3.495c-3.042 0-5.364-2.343-5.364-5.194 0-2.832 2.322-5.175 5.364-5.175s5.364 2.343 5.364 5.175c0 2.851-2.321 5.194-5.364 5.194Zm0-3.3c1.112 0 1.853-.86 1.853-1.875 0-1.034-.741-1.894-1.853-1.894s-1.853.86-1.853 1.894c0 1.016.741 1.875 1.853 1.875ZM35.408 4.236v9.86h5.812v3.32h-6.3c-2.223 0-3.12-1.172-3.12-3.027V4.236h3.608Z" fill="#999999"></path></g><defs><clipPath id="svg1254718711_3004_a"><path fill="#fff" d="M0 0h132v24H0z"></path></clipPath></defs></svg>