<svg viewBox="0 0 106 24" xmlns:xlink="http://www.w3.org/1999/xlink" xmlns="http://www.w3.org/2000/svg" width="106" height="24" fill="none" id="svg1601871620_973"><g clip-path="url(#svg1601871620_973_a)" fill="#999999"><path fill-rule="evenodd" clip-rule="evenodd" d="M9.2 16.8a3 3 0 0 1-3-3V0h-6v13.8a9 9 0 0 0 9 9h6.6v-6H9.2ZM27.2 6a5.4 5.4 0 1 0 0 10.8 5.4 5.4 0 0 0 0-10.8Zm-11.4 5.4C15.8 5.104 20.904 0 27.2 0s11.4 5.104 11.4 11.4-5.104 11.4-11.4 11.4-11.4-5.104-11.4-11.4ZM92 6a5.4 5.4 0 1 0 0 10.8A5.4 5.4 0 0 0 92 6Zm-11.4 5.4C80.6 5.104 85.704 0 92 0s11.4 5.104 11.4 11.4S98.296 22.8 92 22.8s-11.4-5.104-11.4-11.4ZM51.2 0c-6.296 0-11.4 5.104-11.4 11.4s5.104 11.4 11.4 11.4H68c1.181 0 2.32-.18 3.392-.514L74.6 24l3.46-6.482a11.405 11.405 0 0 0 1.34-5.361V11.4C79.4 5.104 74.296 0 68 0H51.2Zm22.2 11.4A5.4 5.4 0 0 0 68 6H51.2a5.4 5.4 0 0 0 0 10.8H68a5.4 5.4 0 0 0 5.4-5.358V11.4Z" fill="#999999"></path><path d="M105.8 1.5a1.501 1.501 0 1 1-3.002 0 1.501 1.501 0 0 1 3.002 0Z" fill="#999999"></path></g><defs><clipPath id="svg1601871620_973_a"><path fill="#fff" transform="translate(.2)" d="M0 0h105.6v24H0z"></path></clipPath></defs></svg>