<svg viewBox="0 0 122 24" xmlns:xlink="http://www.w3.org/1999/xlink" xmlns="http://www.w3.org/2000/svg" width="122" height="24" fill="none" id="svg-762085318_5517"><g clip-path="url(#svg-762085318_5517_a)" fill="#999999"><path fill-rule="evenodd" clip-rule="evenodd" d="M15.733 7.011A6 6 0 0 0 12.4 6V0a12 12 0 1 1-12 12h6a6 6 0 1 0 9.333-4.989Z" fill="#999999"></path><path fill-rule="evenodd" clip-rule="evenodd" d="M6.4 0a6 6 0 0 1-6 6v6a12.001 12.001 0 0 0 12-12h-6Z" fill="#999999"></path><path d="M75.771 8.671h-2.91v9.248h2.91V8.67ZM73.184 6.94c.304.305.685.457 1.141.457.457 0 .831-.152 1.123-.457.292-.317.438-.698.438-1.141 0-.457-.146-.838-.438-1.142-.292-.305-.666-.457-1.123-.457-.456 0-.837.152-1.14.457-.293.304-.439.685-.439 1.142 0 .443.146.824.438 1.141Zm-42.09 10.979V4.485h2.987v10.808h5.956v2.626h-8.943Z" fill="#999999"></path><path fill-rule="evenodd" clip-rule="evenodd" d="M45.416 18.128c-.951 0-1.813-.21-2.587-.628a4.887 4.887 0 0 1-1.808-1.75c-.444-.736-.666-1.56-.666-2.474 0-.913.222-1.731.666-2.454a4.788 4.788 0 0 1 1.808-1.713c.76-.431 1.623-.647 2.587-.647.965 0 1.827.21 2.588.628a4.743 4.743 0 0 1 1.808 1.732c.444.723.666 1.54.666 2.454 0 .914-.222 1.738-.666 2.474a4.887 4.887 0 0 1-1.808 1.75c-.761.419-1.623.628-2.588.628Zm0-2.645a2.22 2.22 0 0 0 1.104-.266c.317-.19.558-.45.723-.78.178-.343.266-.73.266-1.16 0-.432-.088-.806-.266-1.123a1.866 1.866 0 0 0-.742-.762c-.304-.19-.666-.285-1.085-.285-.405 0-.767.095-1.084.285a1.866 1.866 0 0 0-.742.761c-.178.33-.267.71-.267 1.142 0 .419.09.8.267 1.142.177.33.425.59.742.78.317.178.678.266 1.084.266Zm7.367 6.051c.774.355 1.669.533 2.683.533.99 0 1.871-.197 2.645-.59a4.57 4.57 0 0 0 1.827-1.636c.444-.698.666-1.523.666-2.474V8.672h-2.855v.62a3.073 3.073 0 0 0-.723-.45c-.494-.24-1.059-.36-1.693-.36-.85 0-1.605.202-2.264.608-.66.393-1.18.939-1.56 1.636-.381.685-.571 1.46-.571 2.322 0 .85.19 1.623.57 2.321a4.36 4.36 0 0 0 1.56 1.656c.66.405 1.415.609 2.265.609a3.9 3.9 0 0 0 1.694-.362c.245-.117.467-.254.666-.413v.584c0 .647-.21 1.148-.628 1.503-.406.356-.97.533-1.694.533-.583 0-1.084-.101-1.503-.304a3.47 3.47 0 0 1-1.104-.895l-1.788 1.789c.444.634 1.046 1.123 1.807 1.465Zm4.148-6.755c-.291.178-.64.267-1.046.267s-.761-.09-1.066-.267a1.876 1.876 0 0 1-.685-.723 2.154 2.154 0 0 1-.247-1.008c0-.38.082-.723.247-1.028.165-.304.4-.545.704-.723a2.039 2.039 0 0 1 1.047-.266c.406 0 .755.089 1.046.266.305.178.533.419.685.723.165.305.248.647.248 1.028 0 .38-.083.723-.248 1.027a1.74 1.74 0 0 1-.685.704Zm9.799 3.349c-.951 0-1.814-.21-2.587-.628a4.885 4.885 0 0 1-1.808-1.75c-.444-.736-.666-1.56-.666-2.474 0-.913.222-1.731.666-2.454a4.786 4.786 0 0 1 1.808-1.713c.76-.431 1.623-.647 2.588-.647.963 0 1.826.21 2.587.628a4.741 4.741 0 0 1 1.808 1.732c.444.723.666 1.54.666 2.454 0 .914-.222 1.738-.666 2.474a4.885 4.885 0 0 1-1.808 1.75c-.761.419-1.624.628-2.587.628Zm0-2.645c.419 0 .787-.088 1.104-.266.317-.19.558-.45.723-.78.178-.343.266-.73.266-1.16 0-.432-.088-.806-.266-1.123a1.864 1.864 0 0 0-.742-.762c-.304-.19-.666-.285-1.084-.285-.407 0-.768.095-1.085.285a1.864 1.864 0 0 0-.742.761c-.178.33-.267.71-.267 1.142 0 .419.089.8.267 1.142.177.33.424.59.742.78a2.18 2.18 0 0 0 1.085.266Zm16.039 2.627a4.027 4.027 0 0 1-1.713-.362 3.638 3.638 0 0 1-.741-.455v4.527H77.44V8.672h2.911v.638a3.6 3.6 0 0 1 .704-.448 3.854 3.854 0 0 1 1.713-.38c.875 0 1.649.209 2.321.627.685.419 1.218.99 1.598 1.713.394.723.59 1.547.59 2.473 0 .926-.196 1.75-.59 2.474a4.33 4.33 0 0 1-1.598 1.712c-.672.419-1.446.628-2.321.628Zm-.533-2.627c.419 0 .78-.095 1.085-.285.317-.19.564-.45.742-.78a2.33 2.33 0 0 0 .266-1.123 2.37 2.37 0 0 0-.266-1.141 1.864 1.864 0 0 0-.742-.761 1.966 1.966 0 0 0-1.066-.286c-.406 0-.767.095-1.084.286a1.9 1.9 0 0 0-.723.76 2.37 2.37 0 0 0-.267 1.142c0 .419.083.793.248 1.123.177.33.424.59.742.78.317.19.672.285 1.065.285Z" fill="#999999"></path><path d="M90.128 17.938c.532.14 1.071.21 1.617.21 1.154 0 2.067-.267 2.74-.8.684-.533 1.027-1.25 1.027-2.15 0-.584-.107-1.053-.323-1.408a2.516 2.516 0 0 0-.837-.875 4.994 4.994 0 0 0-1.085-.514c-.38-.127-.742-.235-1.084-.324a3.923 3.923 0 0 1-.838-.304c-.215-.114-.323-.266-.323-.457a.43.43 0 0 1 .247-.4c.165-.1.412-.152.742-.152.343 0 .691.07 1.046.21.368.14.698.38.99.723l1.655-1.675a3.821 3.821 0 0 0-1.636-1.198 5.51 5.51 0 0 0-2.169-.419c-.748 0-1.402.127-1.96.38-.558.254-.99.603-1.294 1.047-.304.431-.456.945-.456 1.541 0 .559.108 1.022.323 1.39.215.354.495.634.837.837a4.86 4.86 0 0 0 1.085.475l1.085.324c.342.089.621.196.837.323.228.114.342.286.342.514 0 .178-.095.317-.285.418-.178.102-.438.153-.78.153a3.48 3.48 0 0 1-1.37-.267c-.419-.19-.78-.45-1.085-.78l-1.655 1.675c.317.342.697.647 1.141.913.457.254.945.45 1.466.59Zm10.693.19c-.85 0-1.605-.171-2.264-.514a3.973 3.973 0 0 1-1.522-1.446c-.369-.621-.552-1.332-.552-2.13V8.67h2.911V14c0 .317.05.59.152.818.114.229.28.406.495.533.216.127.476.19.78.19.431 0 .774-.133 1.028-.4.253-.278.38-.659.38-1.14V8.67h2.911v5.347c0 .812-.183 1.529-.552 2.15a3.977 3.977 0 0 1-1.522 1.446c-.647.343-1.395.514-2.245.514Zm8.678-9.456h-2.912v9.247h2.912v-5.404c0-.317.063-.583.19-.8.14-.215.324-.38.552-.494.228-.127.488-.19.78-.19.419 0 .767.133 1.046.4.292.253.438.615.438 1.084v5.404h2.911v-5.404c0-.317.064-.583.191-.8.139-.215.323-.38.552-.494.228-.127.488-.19.78-.19.418 0 .767.133 1.046.4.292.253.437.615.437 1.084v5.404h2.912v-5.727c0-.774-.165-1.434-.495-1.98a3.177 3.177 0 0 0-1.313-1.274c-.545-.305-1.173-.457-1.884-.457-.723 0-1.376.159-1.959.476a3.545 3.545 0 0 0-.994.782 3.25 3.25 0 0 0-.966-.82c-.507-.292-1.085-.438-1.731-.438-.686 0-1.301.146-1.846.438a3.163 3.163 0 0 0-.647.436v-.683Z" fill="#999999"></path></g><defs><clipPath id="svg-762085318_5517_a"><path fill="#fff" transform="translate(.4)" d="M0 0h121.2v24H0z"></path></clipPath></defs></svg>